<?xml version="1.0" standalone="no"?>
<!DOCTYPE svg PUBLIC "-//W3C//DTD SVG 20010904//EN"
 "http://www.w3.org/TR/2001/REC-SVG-20010904/DTD/svg10.dtd">
<svg version="1.0" xmlns="http://www.w3.org/2000/svg"
 width="116.000000pt" height="116.000000pt" viewBox="0 0 116.000000 116.000000"
 preserveAspectRatio="xMidYMid meet">
<metadata>
Created by potrace 1.16, written by Peter Selinger 2001-2019
</metadata>
<g transform="translate(0.000000,116.000000) scale(0.100000,-0.100000)"
fill="#000000" stroke="none">
<path d="M533 1056 c-22 -19 -28 -33 -29 -72 -1 -27 -5 -56 -7 -64 -58 -166
-65 -176 -126 -167 -31 4 -41 1 -46 -12 -10 -25 48 -71 89 -71 19 0 36 -6 38
-12 4 -10 10 -10 29 -2 26 12 68 0 70 -20 1 -6 4 0 8 14 4 14 15 26 24 28 12
2 15 -1 11 -12 -4 -11 -1 -16 11 -16 9 0 16 7 14 18 -4 40 1 48 18 27 l16 -20
-7 20 c-13 36 -11 40 18 43 27 3 28 2 22 -23 -6 -22 -4 -26 8 -22 9 4 16 -2
19 -15 7 -27 24 -15 32 22 4 17 10 30 15 30 9 0 21 -31 25 -60 1 -8 5 -23 9
-32 18 -40 -26 -91 -96 -112 -28 -8 -26 -111 2 -126 19 -10 20 -8 20 33 0 43
1 43 30 39 35 -5 86 13 103 38 7 9 24 20 39 24 56 13 46 90 -16 127 -37 21
-44 43 -49 139 -3 69 -23 101 -87 141 -28 17 -50 34 -50 37 0 21 -54 62 -82
62 l-30 0 23 20 24 19 -32 1 c-20 0 -43 -9 -60 -24z"/>
<path d="M640 316 c-11 -19 -26 -37 -33 -40 -7 -2 -1 -5 13 -5 14 -1 36 -8 48
-17 19 -13 23 -24 21 -56 -2 -22 2 -42 8 -46 17 -11 33 -58 33 -98 0 -20 5
-34 12 -34 26 0 98 33 98 46 0 16 -49 173 -61 196 -13 25 -12 26 23 48 l31 19
-26 12 c-24 11 -30 10 -52 -11 -14 -13 -25 -30 -25 -38 0 -23 -25 -7 -29 19
-3 22 -17 38 -33 39 -3 0 -16 -15 -28 -34z"/>
</g>
</svg>
